<svg width="32" height="32" viewBox="0 0 32 32" fill="none" xmlns="http://www.w3.org/2000/svg">
<path d="M16.0267 3.88086C11.6133 3.88086 8.02666 7.46753 8.02666 11.8809V15.7342C8.02666 16.5475 7.67999 17.7875 7.26666 18.4809L5.73333 21.0275C4.78666 22.6009 5.44 24.3475 7.17333 24.9342C12.92 26.8542 19.12 26.8542 24.8667 24.9342C26.48 24.4009 27.1867 22.4942 26.3067 21.0275L24.7733 18.4809C24.3733 17.7875 24.0267 16.5475 24.0267 15.7342V11.8809C24.0267 7.48086 20.4267 3.88086 16.0267 3.88086Z" stroke="#323132" stroke-width="1.5" stroke-miterlimit="10" stroke-linecap="round"/>
<path d="M18.4934 4.26594C18.0801 4.14594 17.6534 4.0526 17.2134 3.99927C15.9334 3.83927 14.7067 3.9326 13.5601 4.26594C13.9467 3.27927 14.9067 2.58594 16.0267 2.58594C17.1467 2.58594 18.1067 3.27927 18.4934 4.26594Z" stroke="#323132" stroke-width="1.5" stroke-miterlimit="10" stroke-linecap="round" stroke-linejoin="round"/>
<path d="M20.0266 25.4141C20.0266 27.6141 18.2266 29.4141 16.0266 29.4141C14.9333 29.4141 13.9199 28.9607 13.1999 28.2407C12.4799 27.5207 12.0266 26.5074 12.0266 25.4141" stroke="#323132" stroke-width="1.5" stroke-miterlimit="10"/>
</svg>
