<svg width="54" height="54" viewBox="0 0 54 54" fill="none" xmlns="http://www.w3.org/2000/svg">
<path d="M16.2001 39.924L27.0001 29.124L37.8001 39.924L39.9241 37.8L29.1241 27L39.9241 16.2L37.8001 14.076L27.0001 24.876L16.2001 14.076L14.0761 16.2L24.8761 27L14.0761 37.8L16.2001 39.924ZM27.0091 54C23.2771 54 19.7671 53.292 16.4791 51.876C13.1931 50.458 10.3341 48.534 7.90206 46.104C5.47006 43.674 3.54506 40.818 2.12706 37.536C0.709061 34.254 6.10352e-05 30.745 6.10352e-05 27.009C6.10352e-05 23.273 0.709061 19.763 2.12706 16.479C3.54306 13.193 5.46406 10.334 7.89006 7.902C10.3161 5.47 13.1731 3.545 16.4611 2.127C19.7491 0.709 23.2591 0 26.9911 0C30.7231 0 34.2331 0.709 37.5211 2.127C40.8071 3.543 43.6661 5.465 46.0981 7.893C48.5301 10.321 50.4551 13.178 51.8731 16.464C53.2911 19.75 54.0001 23.259 54.0001 26.991C54.0001 30.723 53.2921 34.233 51.8761 37.521C50.4601 40.809 48.5361 43.668 46.1041 46.098C43.6721 48.528 40.8161 50.453 37.5361 51.873C34.2561 53.293 30.7471 54.002 27.0091 54ZM27.0001 51C33.7001 51 39.3751 48.675 44.0251 44.025C48.6751 39.375 51.0001 33.7 51.0001 27C51.0001 20.3 48.6751 14.625 44.0251 9.975C39.3751 5.325 33.7001 3 27.0001 3C20.3001 3 14.6251 5.325 9.97506 9.975C5.32506 14.625 3.00006 20.3 3.00006 27C3.00006 33.7 5.32506 39.375 9.97506 44.025C14.6251 48.675 20.3001 51 27.0001 51Z" fill="#323132"/>
</svg>
