<svg width="32" height="32" viewBox="0 0 32 32" fill="none" xmlns="http://www.w3.org/2000/svg">
<path d="M29.3333 11.3593V5.30602C29.3333 3.42602 28.48 2.66602 26.36 2.66602H20.9733C18.8533 2.66602 18 3.42602 18 5.30602V11.346C18 13.2393 18.8533 13.986 20.9733 13.986H26.36C28.48 13.9993 29.3333 13.2393 29.3333 11.3593Z" stroke="#323132" stroke-width="1.5" stroke-linecap="round" stroke-linejoin="round"/>
<path d="M29.3333 26.36V20.9733C29.3333 18.8533 28.48 18 26.36 18H20.9733C18.8533 18 18 18.8533 18 20.9733V26.36C18 28.48 18.8533 29.3333 20.9733 29.3333H26.36C28.48 29.3333 29.3333 28.48 29.3333 26.36Z" stroke="#323132" stroke-width="1.5" stroke-linecap="round" stroke-linejoin="round"/>
<path d="M14.0001 11.3593V5.30602C14.0001 3.42602 13.1467 2.66602 11.0267 2.66602H5.64008C3.52008 2.66602 2.66675 3.42602 2.66675 5.30602V11.346C2.66675 13.2393 3.52008 13.986 5.64008 13.986H11.0267C13.1467 13.9993 14.0001 13.2393 14.0001 11.3593Z" stroke="#323132" stroke-width="1.5" stroke-linecap="round" stroke-linejoin="round"/>
<path d="M14.0001 26.36V20.9733C14.0001 18.8533 13.1467 18 11.0267 18H5.64008C3.52008 18 2.66675 18.8533 2.66675 20.9733V26.36C2.66675 28.48 3.52008 29.3333 5.64008 29.3333H11.0267C13.1467 29.3333 14.0001 28.48 14.0001 26.36Z" stroke="#323132" stroke-width="1.5" stroke-linecap="round" stroke-linejoin="round"/>
</svg>
