<svg width="40" height="41" viewBox="0 0 40 41" fill="none" xmlns="http://www.w3.org/2000/svg">
<path d="M35 7.5246H5C4.33696 7.5246 3.70107 7.78799 3.23223 8.25683C2.76339 8.72567 2.5 9.36156 2.5 10.0246V30.0246C2.5 30.6876 2.76339 31.3235 3.23223 31.7924C3.70107 32.2612 4.33696 32.5246 5 32.5246H35C35.663 32.5246 36.2989 32.2612 36.7678 31.7924C37.2366 31.3235 37.5 30.6876 37.5 30.0246V10.0246C37.5 9.36156 37.2366 8.72567 36.7678 8.25683C36.2989 7.78799 35.663 7.5246 35 7.5246ZM32.25 10.0246L20 18.4996L7.75 10.0246H32.25ZM5 30.0246V11.1621L19.2875 21.0496C19.4967 21.1948 19.7453 21.2725 20 21.2725C20.2547 21.2725 20.5033 21.1948 20.7125 21.0496L35 11.1621V30.0246H5Z" fill="#FEFDFF"/>
</svg>
