<svg width="280" height="279" viewBox="0 0 280 279" fill="none" xmlns="http://www.w3.org/2000/svg">
<circle cx="139.5" cy="140" r="122" fill="#E40909" fill-opacity="0.47"/>
<circle cx="140" cy="139.5" r="139.5" fill="#FF4747" fill-opacity="0.47"/>
<circle cx="139.043" cy="139.543" r="102.543" fill="#E40909"/>
<g clip-path="url(#clip0_1522_1493)">
<path d="M139.5 96C143.539 96 147.421 96.5156 151.145 97.5469C154.868 98.5781 158.378 100.068 161.672 102.016C164.966 103.964 167.931 106.255 170.566 108.891C173.202 111.526 175.508 114.505 177.484 117.828C179.461 121.151 180.936 124.646 181.91 128.312C182.884 131.979 183.414 135.875 183.5 140C183.5 144.039 182.984 147.921 181.953 151.645C180.922 155.368 179.432 158.878 177.484 162.172C175.536 165.466 173.245 168.431 170.609 171.066C167.974 173.702 164.995 176.008 161.672 177.984C158.349 179.961 154.854 181.436 151.188 182.41C147.521 183.384 143.625 183.914 139.5 184C135.461 184 131.579 183.484 127.855 182.453C124.132 181.422 120.622 179.932 117.328 177.984C114.034 176.036 111.069 173.745 108.434 171.109C105.798 168.474 103.492 165.495 101.516 162.172C99.5391 158.849 98.0638 155.354 97.0898 151.688C96.1159 148.021 95.5859 144.125 95.5 140C95.5 135.961 96.0156 132.079 97.0469 128.355C98.0781 124.632 99.5677 121.122 101.516 117.828C103.464 114.534 105.755 111.569 108.391 108.934C111.026 106.298 114.005 103.992 117.328 102.016C120.651 100.039 124.146 98.5638 127.812 97.5898C131.479 96.6159 135.375 96.0859 139.5 96ZM139.5 178.5C144.198 178.5 148.681 177.698 152.949 176.094C157.217 174.49 161.142 172.155 164.723 169.09L110.41 114.777C107.345 118.329 105.01 122.24 103.406 126.508C101.802 130.776 101 135.273 101 140C101 143.552 101.458 146.961 102.375 150.227C103.292 153.492 104.581 156.557 106.242 159.422C107.904 162.286 109.909 164.879 112.258 167.199C114.607 169.52 117.199 171.525 120.035 173.215C122.871 174.905 125.936 176.208 129.23 177.125C132.525 178.042 135.948 178.5 139.5 178.5ZM168.59 165.223C171.655 161.671 173.99 157.76 175.594 153.492C177.198 149.224 178 144.727 178 140C178 136.448 177.542 133.039 176.625 129.773C175.708 126.508 174.419 123.443 172.758 120.578C171.096 117.714 169.091 115.121 166.742 112.801C164.393 110.48 161.801 108.475 158.965 106.785C156.129 105.095 153.064 103.792 149.77 102.875C146.475 101.958 143.052 101.5 139.5 101.5C134.802 101.5 130.319 102.302 126.051 103.906C121.783 105.51 117.858 107.845 114.277 110.91L168.59 165.223Z" fill="#FEFDFF"/>
</g>
<defs>
<clipPath id="clip0_1522_1493">
<rect width="88" height="88" fill="white" transform="translate(95.5 96)"/>
</clipPath>
</defs>
</svg>
