<svg width="16" height="12" viewBox="0 0 16 12" fill="none" xmlns="http://www.w3.org/2000/svg">
<path d="M7.01897 7.37618L6.55465 7.46112C6.53297 7.34244 6.55757 7.21997 6.62339 7.11887C6.68921 7.01777 6.79126 6.94572 6.90856 6.91752L7.01897 7.37618ZM7.00387 3.21896L7.07371 3.68518C6.99952 3.69642 6.92371 3.68981 6.85258 3.66588C6.78145 3.64196 6.71705 3.60142 6.66473 3.54762C6.61241 3.49382 6.57367 3.42832 6.55174 3.35656C6.5298 3.28479 6.5253 3.20883 6.53861 3.13497L7.00387 3.21896ZM1.15168 4.51285L6.30644 0.461326L6.88968 1.20406L1.73397 5.25463L1.15168 4.51285ZM1.15168 5.99642C1.0394 5.90811 0.948633 5.79546 0.886222 5.66696C0.82381 5.53847 0.791382 5.39748 0.791382 5.25463C0.791382 5.11178 0.82381 4.9708 0.886222 4.8423C0.948633 4.71381 1.0394 4.60116 1.15168 4.51285L1.73397 5.25463L1.15168 5.99642ZM6.30644 10.0479L1.15168 5.99642L1.73397 5.25463L6.88968 9.30521L6.30644 10.0479ZM7.81833 9.13628C7.97405 9.99131 6.98972 10.584 6.30644 10.0479L6.88968 9.30521L7.81833 9.13628ZM7.4833 7.29219L7.81833 9.13628L6.88968 9.30521L6.55465 7.46112L7.4833 7.29219ZM6.90856 6.91752C9.37552 6.32579 11.1819 6.68253 12.4842 7.45546C13.7743 8.2199 14.5114 9.35806 14.9163 10.231L14.0603 10.6274C13.7036 9.85824 13.0731 8.90128 12.0029 8.26708C10.944 7.63949 9.39628 7.29124 7.12939 7.83579L6.90856 6.91752ZM14.9163 10.231C14.8949 10.1826 14.8567 10.1437 14.8087 10.1216C14.786 10.1121 14.7738 10.114 14.7709 10.114C14.7503 10.1165 14.731 10.1258 14.7162 10.1404C14.6893 10.1621 14.667 10.1889 14.6508 10.2194C14.6346 10.2499 14.6247 10.2834 14.6218 10.3179L15.5618 10.4028C15.5203 10.8615 15.1079 11.0266 14.8729 11.0521C14.635 11.0776 14.2349 11.0058 14.0603 10.6274L14.9163 10.231ZM14.6218 10.3179C14.9163 7.02605 13.9801 5.28578 12.6079 4.39771C11.1866 3.47755 9.15657 3.37185 7.07371 3.68518L6.93215 2.75275C9.08579 2.4281 11.4046 2.49416 13.1203 3.60496C14.8851 4.74784 15.8761 6.89864 15.5618 10.4028L14.6218 10.3179ZM7.81833 1.37299L7.46726 3.3039L6.53861 3.13403L6.88968 1.20406L7.81833 1.37299ZM6.30644 0.461326C6.98972 -0.0747243 7.97405 0.517951 7.81833 1.37299L6.88968 1.20406L6.30644 0.461326Z" fill="#3C0099"/>
</svg>
