<svg width="80" height="80" viewBox="0 0 80 80" fill="none" xmlns="http://www.w3.org/2000/svg">
<path d="M72.6851 33.472H70.0001V33.3337H40.0001V46.667H58.8384C56.0901 54.4287 48.7051 60.0003 40.0001 60.0003C28.9551 60.0003 20.0001 51.0453 20.0001 40.0003C20.0001 28.9553 28.9551 20.0003 40.0001 20.0003C45.0984 20.0003 49.7367 21.9237 53.2684 25.0653L62.6967 15.637C56.7434 10.0887 48.7801 6.66699 40.0001 6.66699C21.5917 6.66699 6.66675 21.592 6.66675 40.0003C6.66675 58.4087 21.5917 73.3337 40.0001 73.3337C58.4084 73.3337 73.3334 58.4087 73.3334 40.0003C73.3334 37.7653 73.1034 35.5837 72.6851 33.472Z" fill="#FFC107"/>
<path d="M10.51 24.4853L21.4617 32.517C24.425 25.1803 31.6017 20.0003 40 20.0003C45.0983 20.0003 49.7367 21.9237 53.2683 25.0653L62.6967 15.637C56.7433 10.0887 48.78 6.66699 40 6.66699C27.1967 6.66699 16.0933 13.8953 10.51 24.4853Z" fill="#FF3D00"/>
<path d="M40 73.3335C48.61 73.3335 56.4333 70.0385 62.3483 64.6802L52.0316 55.9502C48.5731 58.5819 44.3459 60.0048 40 60.0002C31.33 60.0002 23.9683 54.4718 21.195 46.7568L10.325 55.1318C15.8416 65.9268 27.045 73.3335 40 73.3335Z" fill="#4CAF50"/>
<path d="M72.685 33.4713H70V33.333H40V46.6663H58.8383C57.5237 50.3604 55.1556 53.5883 52.0267 55.9513L52.0317 55.948L62.3483 64.678C61.6183 65.3413 73.3333 56.6663 73.3333 39.9997C73.3333 37.7647 73.1033 35.583 72.685 33.4713Z" fill="#1976D2"/>
</svg>
