<svg width="48" height="48" viewBox="0 0 48 48" fill="none" xmlns="http://www.w3.org/2000/svg">
<rect width="48" height="48" rx="24" fill="#FEFDFF"/>
<path fill-rule="evenodd" clip-rule="evenodd" d="M25.02 17.592V20.986C25.7307 19.9034 26.7104 19.0238 27.8631 18.4334C29.0158 17.843 30.3021 17.5621 31.596 17.618C38.506 17.618 40 21.938 40 27.558V39H33.6V28.856C33.6 26.436 33.112 23.324 29.344 23.324C25.69 23.324 25.066 25.958 25.066 28.676V39H18.686V17.592H25.02ZM14.4 12.212C14.3992 12.846 14.2113 13.4657 13.8597 13.9933C13.5082 14.5209 13.0088 14.9331 12.424 15.178C11.8394 15.421 11.1958 15.4845 10.5751 15.3606C9.95428 15.2366 9.38441 14.9308 8.93798 14.482C8.49072 14.0329 8.18621 13.4616 8.06277 12.8399C7.93932 12.2183 8.00245 11.574 8.24421 10.9881C8.48596 10.4022 8.89556 9.90081 9.42148 9.54708C9.9474 9.19334 10.5662 9.003 11.2 9C11.6212 9 12.0383 9.08316 12.4274 9.24473C12.8164 9.40629 13.1697 9.64308 13.467 9.9415C13.7643 10.2399 13.9997 10.5941 14.1599 10.9837C14.32 11.3734 14.4016 11.7908 14.4 12.212Z" fill="#3C0099"/>
<path d="M14.4 17.618H8V39H14.4V17.618Z" fill="#3C0099"/>
</svg>
