<svg width="40" height="40" viewBox="0 0 40 40" fill="none" xmlns="http://www.w3.org/2000/svg">
<path d="M22.88 23.52C25.28 21.68 28.8 18.96 28.8 8.8V8H11.2V8.8C11.2 18.96 14.8 21.68 17.12 23.52C18.48 24.56 19.2 25.12 19.2 26.4V28.8C17.92 28.96 16.64 29.44 16.16 30.4H14.4C13.52 30.4 12.8 31.12 12.8 32H27.2C27.2 31.12 26.48 30.4 25.6 30.4H23.84C23.36 29.44 22.16 28.96 20.8 28.8V26.4C20.8 25.12 21.44 24.56 22.88 23.52ZM20 23.92C19.52 23.28 18.8 22.72 18.16 22.24C16 20.56 13.04 18.32 12.88 9.6H27.28C27.12 18.24 24.16 20.56 22 22.24C21.2 22.8 20.48 23.28 20 23.92Z" fill="#FEFDFF"/>
<path d="M15.0399 21.5996C14.9599 21.5996 6.3999 19.7596 6.3999 10.3996V9.59961H11.9999V11.1996H7.9999C8.4799 18.5596 15.2799 19.9996 15.3599 19.9996L15.0399 21.5996ZM24.9599 21.5996L24.6399 19.9996C24.9599 19.9196 31.5199 18.4796 31.9999 11.1996H27.9999V9.59961H33.5999V10.3996C33.5999 19.7596 25.0399 21.5996 24.9599 21.5996Z" fill="#FEFDFF"/>
</svg>
