<svg width="40" height="41" viewBox="0 0 40 41" fill="none" xmlns="http://www.w3.org/2000/svg">
<path fill-rule="evenodd" clip-rule="evenodd" d="M20.4117 34.9729C22.3286 33.2336 24.1026 31.3431 25.7167 29.3196C29.1167 25.0479 31.1851 20.8363 31.3251 17.0913C31.3805 15.5693 31.1285 14.0517 30.5843 12.6292C30.0401 11.2068 29.2147 9.9086 28.1576 8.81225C27.1004 7.71591 25.8331 6.84389 24.4314 6.24828C23.0297 5.65267 21.5223 5.3457 19.9992 5.3457C18.4762 5.3457 16.9688 5.65267 15.5671 6.24828C14.1654 6.84389 12.8981 7.71591 11.8409 8.81225C10.7838 9.9086 9.95841 11.2068 9.41418 12.6292C8.86995 14.0517 8.61802 15.5693 8.67341 17.0913C8.81508 20.8363 10.8851 25.0479 14.2834 29.3196C15.8975 31.3431 17.6716 33.2336 19.5884 34.9729C19.7729 35.1396 19.9101 35.2607 20.0001 35.3363L20.4117 34.9729ZM18.7701 36.9146C18.7701 36.9146 6.66675 26.7213 6.66675 16.6913C6.66675 13.1551 8.07151 9.76367 10.572 7.26318C13.0725 4.7627 16.4639 3.35794 20.0001 3.35794C23.5363 3.35794 26.9277 4.7627 29.4282 7.26318C31.9287 9.76367 33.3334 13.1551 33.3334 16.6913C33.3334 26.7213 21.2301 36.9146 21.2301 36.9146C20.5567 37.5346 19.4484 37.5279 18.7701 36.9146ZM20.0001 21.3579C21.2378 21.3579 22.4247 20.8663 23.2999 19.9911C24.1751 19.1159 24.6667 17.929 24.6667 16.6913C24.6667 15.4536 24.1751 14.2666 23.2999 13.3914C22.4247 12.5163 21.2378 12.0246 20.0001 12.0246C18.7624 12.0246 17.5754 12.5163 16.7002 13.3914C15.8251 14.2666 15.3334 15.4536 15.3334 16.6913C15.3334 17.929 15.8251 19.1159 16.7002 19.9911C17.5754 20.8663 18.7624 21.3579 20.0001 21.3579ZM20.0001 23.3579C18.232 23.3579 16.5363 22.6556 15.286 21.4053C14.0358 20.1551 13.3334 18.4594 13.3334 16.6913C13.3334 14.9232 14.0358 13.2275 15.286 11.9772C16.5363 10.727 18.232 10.0246 20.0001 10.0246C21.7682 10.0246 23.4639 10.727 24.7141 11.9772C25.9644 13.2275 26.6667 14.9232 26.6667 16.6913C26.6667 18.4594 25.9644 20.1551 24.7141 21.4053C23.4639 22.6556 21.7682 23.3579 20.0001 23.3579Z" fill="#FEFDFF"/>
</svg>
