<svg width="279" height="279" viewBox="0 0 279 279" fill="none" xmlns="http://www.w3.org/2000/svg">
<circle cx="139.5" cy="139.5" r="139.5" fill="#80FF84"/>
<circle cx="139" cy="140" r="122" fill="#57F05C"/>
<circle cx="138.543" cy="139.543" r="102.543" fill="#1FC625"/>
<path fill-rule="evenodd" clip-rule="evenodd" d="M174.002 112.741C175.033 113.772 175.612 115.171 175.612 116.629C175.612 118.087 175.033 119.486 174.002 120.518L132.778 161.742C132.233 162.287 131.586 162.719 130.874 163.014C130.162 163.309 129.399 163.461 128.629 163.461C127.858 163.461 127.095 163.309 126.384 163.014C125.672 162.719 125.025 162.287 124.48 161.742L103.998 141.264C103.473 140.756 103.054 140.149 102.765 139.478C102.477 138.807 102.326 138.086 102.319 137.355C102.313 136.625 102.452 135.901 102.729 135.225C103.005 134.549 103.413 133.935 103.93 133.418C104.446 132.902 105.06 132.494 105.736 132.217C106.412 131.941 107.136 131.801 107.867 131.808C108.597 131.814 109.319 131.966 109.99 132.254C110.661 132.542 111.268 132.961 111.775 133.487L128.627 150.339L166.221 112.741C166.732 112.229 167.339 111.824 168.006 111.547C168.674 111.271 169.389 111.128 170.112 111.128C170.834 111.128 171.55 111.271 172.217 111.547C172.885 111.824 173.491 112.229 174.002 112.741Z" fill="#FEFDFF"/>
</svg>
