<svg width="40" height="41" viewBox="0 0 40 41" fill="none" xmlns="http://www.w3.org/2000/svg">
<path d="M11.3143 3.80316L13.6857 3.08888C14.7652 2.7632 15.9264 2.84149 16.9524 3.30915C17.9784 3.77681 18.7992 4.60187 19.2615 5.63031L20.7372 8.91316C21.1348 9.79754 21.2456 10.7842 21.0539 11.7348C20.8623 12.6853 20.3779 13.552 19.6686 14.2132L17.09 16.6174C17.0592 16.6481 17.0332 16.6833 17.0129 16.7217C16.7429 17.2732 17.1529 18.746 18.4372 20.9717C19.8857 23.4803 21.0043 24.4717 21.5229 24.3189L24.9072 23.2832C25.834 23.0001 26.8262 23.0142 27.7446 23.3234C28.663 23.6327 29.4617 24.2215 30.0286 25.0075L32.1257 27.9117C32.7841 28.8236 33.0891 29.9436 32.984 31.0634C32.8789 32.1832 32.3709 33.2268 31.5543 34.0003L29.75 35.7074C29.1226 36.3018 28.3607 36.7355 27.5294 36.9715C26.698 37.2076 25.8219 37.239 24.9757 37.0632C19.9515 36.0174 15.45 31.9717 11.4329 25.0146C7.41432 18.0532 6.16146 12.1246 7.77574 7.24888C8.04597 6.4326 8.5087 5.69336 9.12486 5.09362C9.74101 4.49387 10.491 4.05126 11.3143 3.80316ZM11.9357 5.85459C11.4418 6.00338 10.9908 6.26889 10.6211 6.62868C10.2514 6.98848 9.97366 7.43199 9.81146 7.92173C8.42003 12.1232 9.54717 17.4603 13.29 23.9432C17.03 30.4217 21.0843 34.0646 25.4143 34.9646C25.922 35.07 26.4477 35.0509 26.9464 34.9091C27.4452 34.7673 27.9023 34.507 28.2786 34.1503L30.0815 32.4446C30.5213 32.0282 30.7951 31.4663 30.8518 30.8633C30.9086 30.2603 30.7445 29.6572 30.39 29.166L28.2929 26.2603C27.9877 25.8372 27.5577 25.5202 27.0633 25.3537C26.5689 25.1871 26.0347 25.1795 25.5357 25.3317L22.1429 26.3703C20.2657 26.9289 18.5 25.3646 16.5829 22.0417C14.9586 19.2303 14.3957 17.1989 15.09 15.7803C15.2253 15.5041 15.4053 15.2608 15.63 15.0503L18.2086 12.646C18.5907 12.29 18.8516 11.8233 18.9549 11.3113C19.0581 10.7994 18.9985 10.268 18.7843 9.79173L17.3072 6.51031C17.0583 5.95639 16.6162 5.51202 16.0636 5.26017C15.511 5.00833 14.8857 4.96623 14.3043 5.14173L11.9357 5.85459Z" fill="#FEFDFF"/>
</svg>
