<svg width="115" height="80" viewBox="0 0 115 80" fill="none" xmlns="http://www.w3.org/2000/svg">
<g clip-path="url(#clip0_2761_280)">
<path d="M111.876 12.4778C111.223 10.066 109.95 7.86731 108.184 6.10057C106.417 4.33383 104.218 3.06072 101.807 2.408C92.9774 0 57.4423 0 57.4423 0C57.4423 0 21.9054 0.0728887 13.0761 2.48089C10.6643 3.13364 8.46558 4.40683 6.69892 6.17365C4.93225 7.94047 3.65927 10.1393 3.00672 12.5511C0.336058 28.2391 -0.699942 52.144 3.08006 67.2045C3.73267 69.6162 5.00569 71.8149 6.77235 73.5817C8.53901 75.3484 10.7377 76.6215 13.1494 77.2742C21.9787 79.6822 57.5147 79.6822 57.5147 79.6822C57.5147 79.6822 93.0503 79.6822 101.879 77.2742C104.291 76.6216 106.49 75.3485 108.256 73.5817C110.023 71.815 111.296 69.6163 111.949 67.2045C114.766 51.4942 115.634 27.604 111.876 12.4778Z" fill="#FF0000"/>
<path d="M46.1315 56.9159L75.6106 39.8413L46.1315 22.7666V56.9159Z" fill="white"/>
</g>
<defs>
<clipPath id="clip0_2761_280">
<rect width="113.778" height="80" fill="white" transform="translate(0.611084)"/>
</clipPath>
</defs>
</svg>
